<?xml version="1.0" encoding="utf-8"?>
<!-- Generator: Adobe Illustrator 16.0.0, SVG Export Plug-In . SVG Version: 6.00 Build 0)  -->
<!DOCTYPE svg PUBLIC "-//W3C//DTD SVG 1.1//EN" "http://www.w3.org/Graphics/SVG/1.1/DTD/svg11.dtd">
<svg version="1.1" id="Layer_1" xmlns="http://www.w3.org/2000/svg" xmlns:xlink="http://www.w3.org/1999/xlink" x="0px" y="0px"
	 width="362.171px" height="103.042px" viewBox="0 0 362.171 103.042" enable-background="new 0 0 362.171 103.042"
	 xml:space="preserve">
<g>
	<defs>
		<rect id="SVGID_1_" width="129.963" height="103.042"/>
	</defs>
	<clipPath id="SVGID_2_">
		<use xlink:href="#SVGID_1_"  overflow="visible"/>
	</clipPath>
	<path clip-path="url(#SVGID_2_)" fill-rule="evenodd" clip-rule="evenodd" fill="#A7BACC" d="M64.407,0
		c14.74,0,28.044,6.201,37.432,16.141l25.776,0.798c1.013,0,1.889,0.62,2.222,1.629c0.318,1.062,0.091,2.029-0.575,2.804
		l-15.813,14.365c1.603,4.978,2.48,10.277,2.48,15.783c0,28.448-23.07,51.522-51.522,51.522c-18.625,0-34.952-9.88-44.007-24.691
		L4.42,96.41c-0.725,0.94-1.874,1.106-3.023,0.494c-1.089-0.494-1.633-1.636-1.3-2.804l7.604-29.427l5.745-5.556
		c-0.378-2.475-0.56-5.015-0.56-7.597C12.886,23.069,35.956,0,64.407,0 M64.407,17.109c19.003,0,34.408,15.409,34.408,34.411
		c0,19.003-15.405,34.413-34.408,34.413S29.999,70.523,29.999,51.52C29.999,32.518,45.404,17.109,64.407,17.109 M52.767,75.074
		c-5.473-2.698-10.038-7.316-12.593-13.394c-2.555-6.089-2.646-12.556-0.741-18.372c0.575-1.716,2.177-2.801,3.991-2.698
		c1.829,0.113,3.266,1.398,3.613,3.178c0.802,4.218,2.177,8.73,4.097,13.304c1.92,4.55,4.173,8.696,6.622,12.233
		c1.012,1.496,0.907,3.432-0.287,4.808C56.289,75.499,54.385,75.879,52.767,75.074 M76.048,27.952
		c5.473,2.71,10.038,7.325,12.593,13.406c2.555,6.069,2.646,12.555,0.741,18.372c-0.574,1.727-2.177,2.8-3.991,2.698
		c-1.814-0.125-3.266-1.402-3.613-3.178c-0.832-4.218-2.192-8.731-4.097-13.296c-1.92-4.559-4.173-8.708-6.622-12.246
		c-0.997-1.493-0.907-3.424,0.273-4.8C72.51,27.536,74.43,27.154,76.048,27.952"/>
</g>
<g>
	<path fill="#A7BACC" d="M139.916,21.801c1.563-0.271,3.247-0.526,5.049-0.765c1.801-0.237,3.604-0.424,5.406-0.561
		c1.801-0.135,3.552-0.237,5.253-0.306c1.699-0.067,3.264-0.102,4.692-0.102c3.331,0,6.612,0.306,9.843,0.918
		c3.229,0.612,6.12,1.667,8.67,3.162c2.55,1.497,4.59,3.554,6.12,6.171c1.53,2.619,2.295,5.9,2.295,9.843
		c0,5.849-1.361,10.608-4.08,14.28c-2.721,3.672-6.359,6.222-10.914,7.65l4.998,3.162l16.32,27.234h-16.116l-16.218-27.948
		l-7.344-1.326v29.274h-13.974V21.801z M161.336,32.511c-1.428,0-2.84,0.035-4.233,0.102c-1.395,0.068-2.466,0.204-3.213,0.408
		v20.706h5.916c3.876,0,6.97-0.883,9.282-2.652c2.311-1.768,3.468-4.692,3.468-8.772c0-3.06-0.953-5.457-2.856-7.191
		C167.795,33.378,165.008,32.511,161.336,32.511z"/>
	<path fill="#A7BACC" d="M232.327,89.325c-2.04,1.497-4.505,2.636-7.395,3.417c-2.891,0.781-5.865,1.173-8.925,1.173
		c-4.08,0-7.532-0.646-10.353-1.938c-2.823-1.291-5.118-3.111-6.885-5.457c-1.769-2.347-3.044-5.185-3.825-8.518
		c-0.783-3.33-1.173-7.003-1.173-11.016c0-8.635,1.938-15.282,5.814-19.941c3.876-4.657,9.52-6.987,16.932-6.987
		c3.739,0,6.748,0.306,9.027,0.918c2.277,0.612,4.335,1.395,6.171,2.346l-3.162,10.812c-1.565-0.748-3.111-1.326-4.641-1.734
		c-1.53-0.408-3.281-0.612-5.253-0.612c-3.672,0-6.461,1.208-8.364,3.621c-1.905,2.415-2.856,6.273-2.856,11.577
		c0,2.177,0.237,4.182,0.714,6.018c0.475,1.836,1.189,3.435,2.142,4.794c0.951,1.361,2.193,2.433,3.723,3.214
		c1.53,0.782,3.315,1.173,5.355,1.173c2.244,0,4.147-0.289,5.712-0.867c1.563-0.577,2.958-1.275,4.182-2.091L232.327,89.325z"/>
	<path fill="#A7BACC" d="M240.079,44.445c2.719-1.224,5.95-2.193,9.69-2.907c3.739-0.714,7.65-1.071,11.73-1.071
		c3.535,0,6.493,0.426,8.874,1.275c2.379,0.851,4.266,2.058,5.66,3.621c1.393,1.565,2.381,3.435,2.959,5.61
		c0.576,2.177,0.867,4.625,0.867,7.344c0,2.993-0.104,6.002-0.307,9.027c-0.203,3.026-0.324,6.002-0.357,8.925
		c-0.035,2.924,0.051,5.763,0.256,8.517c0.203,2.754,0.713,5.355,1.529,7.803h-10.812l-2.141-7.037h-0.51
		c-1.361,2.108-3.248,3.927-5.661,5.457c-2.415,1.529-5.526,2.295-9.333,2.295c-2.381,0-4.523-0.357-6.426-1.071
		c-1.904-0.714-3.537-1.734-4.896-3.061c-1.361-1.325-2.415-2.889-3.162-4.691c-0.749-1.801-1.122-3.825-1.122-6.069
		c0-3.127,0.696-5.763,2.091-7.905c1.393-2.142,3.399-3.876,6.018-5.201c2.617-1.326,5.746-2.244,9.384-2.754
		c3.637-0.51,7.701-0.663,12.189-0.459c0.475-3.808,0.204-6.544-0.816-8.211c-1.02-1.666-3.299-2.499-6.834-2.499
		c-2.652,0-5.457,0.272-8.415,0.816c-2.958,0.545-5.39,1.259-7.293,2.142L240.079,44.445z M256.909,82.389
		c2.652,0,4.759-0.595,6.324-1.785c1.563-1.189,2.719-2.464,3.468-3.825v-6.63c-2.108-0.204-4.131-0.237-6.069-0.103
		c-1.938,0.138-3.656,0.443-5.151,0.918c-1.497,0.477-2.687,1.157-3.57,2.04c-0.884,0.885-1.326,2.007-1.326,3.366
		c0,1.904,0.561,3.384,1.683,4.438C253.39,81.863,254.936,82.389,256.909,82.389z"/>
	<path fill="#A7BACC" d="M319.943,92.487V64.743c0-4.692-0.443-8.023-1.326-9.996c-0.885-1.971-2.721-2.958-5.508-2.958
		c-2.312,0-4.183,0.63-5.61,1.887c-1.428,1.259-2.517,2.874-3.264,4.845v33.966h-13.26v-51h10.302l1.53,6.732h0.407
		c1.563-2.175,3.553-4.08,5.968-5.712c2.412-1.632,5.523-2.448,9.332-2.448c3.265,0,5.933,0.663,8.008,1.989
		c2.073,1.326,3.688,3.554,4.845,6.681c1.563-2.652,3.57-4.759,6.018-6.324c2.448-1.563,5.406-2.346,8.874-2.346
		c2.856,0,5.287,0.341,7.293,1.02c2.005,0.681,3.638,1.854,4.896,3.519c1.258,1.667,2.193,3.894,2.805,6.681
		c0.612,2.789,0.918,6.324,0.918,10.608v30.6h-13.26V63.825c0-4.011-0.426-7.021-1.275-9.027c-0.851-2.005-2.737-3.009-5.66-3.009
		c-2.382,0-4.269,0.647-5.661,1.938c-1.395,1.292-2.433,3.06-3.111,5.304v33.456H319.943z"/>
</g>
</svg>
